HIERARCHY
ROOT hip
{
	OFFSET 0.000000 0.000000 0.000000
	CHANNELS 6 Xposition Yposition Zposition Xrotation Zrotation Yrotation 
	JOINT abdomen
	{
		OFFSET 0.000000 3.422050 0.000000
		CHANNELS 3 Xrotation Zrotation Yrotation 
		JOINT chest
		{
			OFFSET 0.000000 8.486693 -0.684411
			CHANNELS 3 Xrotation Zrotation Yrotation 
			JOINT neck
			{
				OFFSET 0.000000 10.266162 -0.273764
				CHANNELS 3 Xrotation Zrotation Yrotation 
				JOINT head
				{
					OFFSET 0.000000 3.148285 0.000000
					CHANNELS 3 Xrotation Zrotation Yrotation 
					End Site
					{
						OFFSET 0.000000 3.148289 0.000000
					}
				}
			}
			JOINT lCollar
			{
				OFFSET 3.422053 6.707223 -0.821293
				CHANNELS 3 Yrotation Zrotation Xrotation 
				JOINT lShldr
				{
					OFFSET 3.285171 0.000000 0.000000
					CHANNELS 3 Zrotation Yrotation Xrotation 
					JOINT lForeArm
					{
						OFFSET 10.129278 0.000000 0.000000
						CHANNELS 3 Yrotation Zrotation Xrotation 
						JOINT lHand
						{
							OFFSET 8.486692 0.000000 0.000000
							CHANNELS 3 Zrotation Yrotation Xrotation 
							End Site
							{
								OFFSET 4.106464 0.000000 0.000000
							}
						}
					}
				}
			}
			JOINT rCollar
			{
				OFFSET -3.558935 6.707223 -0.821293
				CHANNELS 3 Yrotation Zrotation Xrotation 
				JOINT rShldr
				{
					OFFSET -3.148289 0.000000 0.000000
					CHANNELS 3 Zrotation Yrotation Xrotation 
					JOINT rForeArm
					{
						OFFSET -10.266159 0.000000 0.000000
						CHANNELS 3 Yrotation Zrotation Xrotation 
						JOINT rHand
						{
							OFFSET -8.349810 0.000000 0.000000
							CHANNELS 3 Zrotation Yrotation Xrotation 
							End Site
							{
								OFFSET -4.106464 0.000000 0.000000
							}
						}
					}
				}
			}
		}
	}
	JOINT lThigh
	{
		OFFSET 5.338403 -1.642589 1.368821
		CHANNELS 3 Xrotation Zrotation Yrotation 
		JOINT lShin
		{
			OFFSET -2.053232 -20.121670 0.000000
			CHANNELS 3 Xrotation Zrotation Yrotation 
			JOINT lFoot
			{
				OFFSET 0.000000 -19.300380 -1.231939
				CHANNELS 3 Xrotation Yrotation Zrotation 
				End Site
				{
					OFFSET 0.000000 -2.463878 4.653993
				}
			}
		}
	}
	JOINT rThigh
	{
		OFFSET -5.338403 -1.642589 1.368821
		CHANNELS 3 Xrotation Zrotation Yrotation 
		JOINT rShin
		{
			OFFSET 2.053232 -20.121670 0.000000
			CHANNELS 3 Xrotation Zrotation Yrotation 
			JOINT rFoot
			{
				OFFSET 0.000000 -19.300380 -1.231939
				CHANNELS 3 Xrotation Yrotation Zrotation 
				End Site
				{
					OFFSET 0.000000 -2.463878 4.653993
				}
			}
		}
	}
}
MOTION
Frames: 10
Frame Time: 0.049868
0.000000 43.528500 0.000000 0.000000 0.000000 0.000000 0.000000 0.000000 0.000000 0.000000 0.000000 0.000000 0.000000 0.000000 0.000000 0.000000 0.000000 0.000000 0.000000 0.000000 0.000000 0.000000 0.000000 0.000000 0.000000 0.000000 0.000000 0.000000 0.000000 0.000000 0.000000 0.000000 0.000000 0.000000 0.000000 0.000000 0.000000 0.000000 0.000000 0.000000 0.000000 0.000000 0.000000 0.000000 0.000000 0.000000 0.000000 0.000000 0.000000 0.000000 0.000000 0.000000 0.000000 0.000000 0.000000 0.000000 0.000000 0.000000 0.000000 0.000000 
3.427251 21.742378 26.766300 0.011022 -0.013346 -169.104675 1.461715 -1.985083 -1.086957 15.672481 -8.057472 -0.949721 9.988152 0.000000 0.000000 -37.004505 0.000000 0.000000 17.506273 -28.511951 -59.757763 -52.668827 23.337444 27.268568 -29.947535 69.889549 14.206812 -1.923697 -4.590408 -27.276859 20.166939 -5.885938 -28.280273 56.584721 32.633724 -5.089316 38.415302 -1.327846 -2.243031 7.921376 5.186874 -13.530139 -16.788221 5.833472 0.718897 106.992775 6.256382 0.452274 59.708851 8.754300 4.565121 -14.727128 -7.235633 2.609278 107.780304 -6.410288 -1.352152 60.392918 -4.203564 -5.901267 
3.427251 21.742378 26.766300 0.011022 -0.013346 -169.104675 2.480944 -2.413172 -1.090661 15.489466 -8.220982 -0.968190 9.988151 0.000000 0.000000 -37.004501 0.000000 0.000000 17.640154 -29.270243 -59.688923 -51.824203 22.715670 27.652605 -26.853884 65.791801 10.373171 -1.923697 -4.590408 -27.276857 18.573929 -5.713623 -28.072681 57.319878 32.730743 -4.507482 40.271217 -1.043799 -2.249695 7.598164 4.869414 -14.195060 -16.614996 5.843694 0.707235 106.992775 6.256382 0.452274 59.708851 8.754300 4.565121 -14.727126 -7.235633 2.609277 107.780304 -6.410288 -1.352152 60.392918 -4.203564 -5.901267 
3.427251 21.742378 26.766300 0.011022 -0.013346 -169.104675 3.502080 -2.841770 -1.102012 15.306412 -8.384561 -0.986140 9.988152 0.000000 0.000000 -37.004505 0.000000 0.000000 17.776196 -30.028936 -59.617477 -50.986839 22.087997 28.025419 -24.759748 61.627747 7.526386 -1.923697 -4.590408 -27.276861 16.975471 -5.546573 -27.859705 58.057819 32.821568 -3.922905 42.135170 -0.758869 -2.265644 7.278585 4.548006 -14.858372 -16.441751 5.853951 0.695603 106.992775 6.256382 0.452274 59.708851 8.754300 4.565121 -14.727129 -7.235633 2.609278 107.780304 -6.410288 -1.352152 60.392918 -4.203564 -5.901267 
3.427251 21.742378 26.766300 0.011022 -0.013346 -169.104675 4.525054 -3.270660 -1.121047 15.123318 -8.548205 -1.003570 9.988152 0.000000 0.000000 -37.004505 0.000000 0.000000 17.914495 -30.787962 -59.543324 -50.156685 21.454704 28.387087 -23.297934 57.433144 5.299024 -1.923697 -4.590408 -27.276859 15.372185 -5.385040 -27.641550 58.798367 32.906124 -3.335746 44.006325 -0.473510 -2.290968 6.962689 4.222722 -15.520014 -16.268494 5.864244 0.684001 106.992775 6.256382 0.452274 59.708851 8.754300 4.565121 -14.727128 -7.235633 2.609278 107.780304 -6.410287 -1.352152 60.392918 -4.203564 -5.901267 
3.427251 21.742378 26.766300 0.011022 -0.013346 -169.104675 5.549791 -3.699626 -1.147795 14.940187 -8.711915 -1.020480 9.988152 0.000000 0.000000 -37.004505 0.000000 0.000000 18.055130 -31.547234 -59.466373 -49.333626 20.816050 28.737677 -20.509598 53.355240 1.777202 -1.923697 -4.590408 -27.276859 13.764682 -5.229266 -27.418438 59.541389 32.984383 -2.746173 45.883766 -0.188188 -2.325726 6.650533 3.893644 -16.179949 -16.095221 5.874574 0.672430 106.992775 6.256382 0.452274 59.708851 8.754302 4.565122 -14.727128 -7.235633 2.609278 107.780304 -6.410288 -1.352152 60.392918 -4.203564 -5.901268 
3.427251 21.742378 26.766300 0.011022 -0.013346 -169.104675 6.576223 -4.128450 -1.182280 14.757015 -8.875683 -1.036868 9.988152 0.000000 0.000000 -37.004505 0.000000 0.000000 18.198204 -32.306690 -59.386555 -48.517551 20.172287 29.077242 -18.345003 49.188713 -1.139786 -1.923697 -4.590408 -27.276859 12.153605 -5.079478 -27.190594 60.286701 33.056282 -2.154354 47.766605 0.096630 -2.369949 6.342169 3.560850 -16.838137 -15.921940 5.884939 0.660889 106.992783 6.256382 0.452274 59.708851 8.754300 4.565121 -14.727128 -7.235633 2.609278 107.780312 -6.410288 -1.352152 60.392918 -4.203564 -5.901267 
3.427251 21.742378 26.766300 0.011022 -0.013346 -169.104675 7.604266 -4.556908 -1.224519 14.573800 -9.039510 -1.052734 9.988152 0.000000 0.000000 -37.004505 0.000000 0.000000 18.343819 -33.066242 -59.303772 -47.708378 19.523687 29.405870 -16.648613 44.970062 -3.608140 -1.923696 -4.590408 -27.276857 10.539602 -4.935895 -26.958277 61.034134 33.121765 -1.560450 49.653866 0.380470 -2.423635 6.037649 3.224423 -17.494537 -15.748641 5.895337 0.649378 106.992775 6.256382 0.452274 59.708843 8.754300 4.565121 -14.727128 -7.235633 2.609278 107.780304 -6.410288 -1.352152 60.392918 -4.203564 -5.901267 
3.427251 21.742378 26.766300 0.011022 -0.013346 -169.104660 8.633852 -4.984785 -1.274526 14.390541 -9.203389 -1.068076 9.988152 0.000000 0.000000 -37.004505 0.000000 0.000000 18.492067 -33.825817 -59.217899 -46.905960 18.870501 29.723625 -14.013954 40.911987 -6.968868 -1.923697 -4.590408 -27.276861 8.923334 -4.798721 -26.721739 61.783516 33.180801 -0.964645 51.544659 0.662858 -2.486757 5.737020 2.884445 -18.149117 -15.575333 5.905774 0.637898 106.992775 6.256382 0.452274 59.708851 8.754301 4.565122 -14.727128 -7.235633 2.609278 107.780312 -6.410288 -1.352152 60.392918 -4.203564 -5.901268 
3.427251 21.742378 26.766300 0.011022 -0.013346 -169.104675 9.664902 -5.411857 -1.332304 14.207240 -9.367321 -1.082895 9.988152 0.000000 0.000000 -37.004509 0.000000 0.000000 18.643074 -34.585350 -59.128860 -46.110203 18.212996 30.030598 -11.824363 36.747093 -9.910051 -1.923697 -4.590408 -27.276859 7.305465 -4.668141 -26.481256 62.534664 33.233334 -0.367117 53.437996 0.943321 -2.559253 5.440329 2.541000 -18.801840 -15.402016 5.916244 0.626449 106.992775 6.256382 0.452274 59.708851 8.754300 4.565121 -14.727128 -7.235633 2.609278 107.780304 -6.410288 -1.352152 60.392918 -4.203564 -5.901267 
